<svg width="40" height="39" viewBox="0 0 40 39" fill="none" xmlns="http://www.w3.org/2000/svg">
<path fill-rule="evenodd" clip-rule="evenodd" d="M19.9932 0C8.94697 0 0 8.94697 0 19.9932C0 28.8402 5.72306 36.3127 13.6704 38.9618C14.67 39.1367 15.0449 38.5369 15.0449 38.0121C15.0449 37.5373 15.0199 35.9628 15.0199 34.2884C9.99662 35.2131 8.69706 33.0638 8.29719 31.9392C8.07227 31.3644 7.0976 29.59 6.24788 29.1151C5.54812 28.7403 4.54846 27.8156 6.22289 27.7906C7.79736 27.7656 8.92198 29.2401 9.29685 29.8399C11.0962 32.8639 13.9703 32.0142 15.1199 31.4893C15.2948 30.1898 15.8196 29.3151 16.3944 28.8152C11.946 28.3154 7.29753 26.591 7.29753 18.9436C7.29753 16.7693 8.07227 14.9699 9.34684 13.5704C9.1469 13.0706 8.44714 11.0213 9.54677 8.2722C9.54677 8.2722 11.2212 7.74738 15.0449 10.3215C16.6444 9.87166 18.3438 9.64673 20.0432 9.64673C21.7426 9.64673 23.4421 9.87166 25.0415 10.3215C28.8652 7.72239 30.5397 8.2722 30.5397 8.2722C31.6393 11.0213 30.9395 13.0706 30.7396 13.5704C32.0142 14.9699 32.7889 16.7443 32.7889 18.9436C32.7889 26.616 28.1155 28.3154 23.667 28.8152C24.3917 29.44 25.0165 30.6396 25.0165 32.514C25.0165 35.1881 24.9915 37.3374 24.9915 38.0121C24.9915 38.5369 25.3664 39.1617 26.3661 38.9618C30.3351 37.6219 33.784 35.0711 36.2273 31.6683C38.6707 28.2656 39.9854 24.1823 39.9865 19.9932C39.9865 8.94697 31.0395 0 19.9932 0Z" fill="#FAF0E6"/>
</svg>
