<svg width="144" height="46" viewBox="0 0 144 46" fill="none" xmlns="http://www.w3.org/2000/svg">
<path d="M14 31.4C14 33.0533 13.4133 34.4667 12.24 35.64C11.0667 36.8133 9.65333 37.4 8 37.4H6.96C5.30667 37.4 3.89333 36.8133 2.72 35.64C1.54667 34.4667 0.96 33.0533 0.96 31.4V16.52C0.96 14.8667 1.54667 13.4533 2.72 12.28C3.89333 11.1067 5.30667 10.52 6.96 10.52H8C9.65333 10.52 11.0667 11.1067 12.24 12.28C13.4133 13.4533 14 14.8667 14 16.52V20.64H10C10 20.4 10.0133 20.0133 10.04 19.48C10.0667 18.92 10.08 18.5067 10.08 18.24C10.08 15.4667 9.18667 14.08 7.4 14.08C5.77333 14.08 4.96 15.2 4.96 17.44V30.32C4.96 32.56 5.82667 33.68 7.56 33.68C9.18667 33.68 10 32.56 10 30.32V26.84H14V31.4ZM29.0438 24.12L29.0038 37H25.0838L25.0438 25.04C25.0438 22.8 24.1771 21.68 22.4438 21.68C20.8438 21.68 20.0438 22.44 20.0438 23.96L20.1237 37H15.9238L15.8838 11L20.0438 11.04L20.0038 19.24C20.5904 18.4933 21.7371 18.12 23.4438 18.12C25.0704 18.12 26.4038 18.7067 27.4438 19.88C28.5104 21.0533 29.0438 22.4667 29.0438 24.12ZM43.9991 31.4C43.9991 33.0533 43.4124 34.4667 42.2391 35.64C41.0657 36.8133 39.6524 37.4 37.9991 37.4H36.9591C35.3057 37.4 33.8924 36.8133 32.7191 35.64C31.5457 34.4667 30.9591 33.0533 30.9591 31.4V24.12C30.9591 22.4667 31.5457 21.0533 32.7191 19.88C33.8924 18.7067 35.3057 18.12 36.9591 18.12H37.9991C39.6524 18.12 41.0657 18.7067 42.2391 19.88C43.4124 21.0533 43.9991 22.4667 43.9991 24.12V29.64H34.9591V30.32C34.9591 31.5733 35.2391 32.4533 35.7991 32.96C36.3591 33.4667 37.2791 33.72 38.5591 33.72C39.2791 33.72 39.7724 32.9467 40.0391 31.4H43.9991ZM39.9991 26.32V25.04C39.9991 22.8 39.1324 21.68 37.3991 21.68C35.7724 21.68 34.9591 22.8 34.9591 25.04V26.28L39.9991 26.32ZM58.9591 31.4C58.9591 33.0533 58.3724 34.4667 57.1991 35.64C56.0257 36.8133 54.6124 37.4 52.9591 37.4H51.9191C50.2657 37.4 48.8524 36.8133 47.6791 35.64C46.5057 34.4667 45.9191 33.0533 45.9191 31.4V24.12C45.9191 22.4667 46.5057 21.0533 47.6791 19.88C48.8524 18.7067 50.2657 18.12 51.9191 18.12H52.9591C54.6124 18.12 56.0257 18.7067 57.1991 19.88C58.3724 21.0533 58.9591 22.4667 58.9591 24.12V26.24H54.9591C54.9591 24.8267 54.8524 23.8267 54.6391 23.24C54.2657 22.2 53.5057 21.68 52.3591 21.68C50.7324 21.68 49.9191 22.8 49.9191 25.04V30.32C49.9191 32.56 50.7857 33.68 52.5191 33.68C53.6924 33.68 54.4391 33.1867 54.7591 32.2C54.8924 31.7467 54.9591 30.76 54.9591 29.24H58.9591V31.4ZM73.4894 37H68.3694L64.5694 31.4L64.6094 37H60.4094L60.3694 11L64.5294 11.04L64.5694 22.76L68.3694 17.92H73.4894L65.9694 26.84L73.4894 37ZM88.2634 31.4C88.2634 33.0533 87.6768 34.4667 86.5034 35.64C85.3301 36.8133 83.9168 37.4 82.2634 37.4H81.2234C79.5701 37.4 78.1568 36.8133 76.9834 35.64C75.8101 34.4667 75.2234 33.0533 75.2234 31.4V16.52C75.2234 14.8667 75.8101 13.4533 76.9834 12.28C78.1568 11.1067 79.5701 10.52 81.2234 10.52H82.2634C83.9168 10.52 85.3301 11.1067 86.5034 12.28C87.6768 13.4533 88.2634 14.8667 88.2634 16.52V31.4ZM84.2634 30.32V17.44C84.2634 16.4 84.1568 15.64 83.9434 15.16C83.5968 14.44 82.9701 14.08 82.0634 14.08C80.1701 14.08 79.2234 15.2 79.2234 17.44V30.32C79.2234 32.56 80.0901 33.68 81.8234 33.68C83.4501 33.68 84.2634 32.56 84.2634 30.32ZM103.695 37.04L99.535 37L99.575 36C98.9617 36.7467 97.815 37.12 96.135 37.12C94.4817 37.12 93.135 36.5467 92.095 35.4C91.055 34.2267 90.535 32.8 90.535 31.12L90.575 17.84H94.495L94.535 30.2C94.535 32.44 95.4017 33.56 97.135 33.56C98.7083 33.56 99.495 32.8 99.495 31.28L99.455 17.84H103.655L103.695 37.04ZM114.879 37.56C110.292 37.56 107.999 36.2 107.999 33.48V22.08H106.039L105.999 18.52H108.039L107.959 15H111.959L111.999 18.56H114.879V22.08H111.999V32.56C111.999 33.3067 112.319 33.7733 112.959 33.96C113.252 34.04 113.879 34.0667 114.839 34.04L114.879 37.56ZM121.731 29.08H117.571V11L121.731 11.04V29.08ZM121.771 37H117.611L117.571 32.64H121.731L121.771 37Z" fill="#352F44"/>
<mask id="mask0_36_5" style="mask-type:alpha" maskUnits="userSpaceOnUse" x="119" y="11" width="25" height="24">
<rect x="119.913" y="11" width="23.9826" height="24" fill="#D9D9D9"/>
</mask>
<g mask="url(#mask0_36_5)">
<path d="M131.705 23L127.108 18.4L129.306 16.2L136.101 23L129.306 29.8L127.108 27.6L131.705 23Z" fill="#352F44"/>
</g>
</svg>
