<svg width="24" height="24" viewBox="0 0 24 24" fill="none" xmlns="http://www.w3.org/2000/svg">
<mask id="mask0_36_163" style="mask-type:alpha" maskUnits="userSpaceOnUse" x="0" y="0" width="24" height="24">
<rect width="24" height="24" fill="#352F44"/>
</mask>
<g mask="url(#mask0_36_163)">
<path d="M12 18C9.5 18 7.375 17.125 5.625 15.375C3.875 13.625 3 11.5 3 9C3 6.5 3.875 4.375 5.625 2.625C7.375 0.875 9.5 0 12 0C12.2333 0 12.4625 0.00833333 12.6875 0.025C12.9125 0.0416667 13.1333 0.0666667 13.35 0.1C12.6667 0.583333 12.1208 1.2125 11.7125 1.9875C11.3042 2.7625 11.1 3.6 11.1 4.5C11.1 6 11.625 7.275 12.675 8.325C13.725 9.375 15 9.9 16.5 9.9C17.4167 9.9 18.2583 9.69583 19.025 9.2875C19.7917 8.87917 20.4167 8.33333 20.9 7.65C20.9333 7.86667 20.9583 8.0875 20.975 8.3125C20.9917 8.5375 21 8.76667 21 9C21 11.5 20.125 13.625 18.375 15.375C16.625 17.125 14.5 18 12 18ZM12 16C13.4667 16 14.7833 15.5958 15.95 14.7875C17.1167 13.9792 17.9667 12.925 18.5 11.625C18.1667 11.7083 17.8333 11.775 17.5 11.825C17.1667 11.875 16.8333 11.9 16.5 11.9C14.45 11.9 12.7042 11.1792 11.2625 9.7375C9.82083 8.29583 9.1 6.55 9.1 4.5C9.1 4.16667 9.125 3.83333 9.175 3.5C9.225 3.16667 9.29167 2.83333 9.375 2.5C8.075 3.03333 7.02083 3.88333 6.2125 5.05C5.40417 6.21667 5 7.53333 5 9C5 10.9333 5.68333 12.5833 7.05 13.95C8.41667 15.3167 10.0667 16 12 16Z" fill="#352F44"/>
</g>
</svg>
