<svg width="24" height="24" viewBox="0 0 24 24" fill="none" xmlns="http://www.w3.org/2000/svg">
<path d="M12 23.3L8.65001 20H4.00001V15.35L0.700012 12L4.00001 8.65001V4.00001H8.65001L12 0.700012L15.35 4.00001H20V8.65001L23.3 12L20 15.35V20H15.35L12 23.3ZM12 18C13.6667 18 15.0833 17.4167 16.25 16.25C17.4167 15.0833 18 13.6667 18 12C18 10.3333 17.4167 8.91668 16.25 7.75001C15.0833 6.58335 13.6667 6.00001 12 6.00001C10.3333 6.00001 8.91668 6.58335 7.75001 7.75001C6.58335 8.91668 6.00001 10.3333 6.00001 12C6.00001 13.6667 6.58335 15.0833 7.75001 16.25C8.91668 17.4167 10.3333 18 12 18ZM12 16C10.9 16 9.95835 15.6083 9.17501 14.825C8.39168 14.0417 8.00001 13.1 8.00001 12C8.00001 10.9 8.39168 9.95835 9.17501 9.17501C9.95835 8.39168 10.9 8.00001 12 8.00001C13.1 8.00001 14.0417 8.39168 14.825 9.17501C15.6083 9.95835 16 10.9 16 12C16 13.1 15.6083 14.0417 14.825 14.825C14.0417 15.6083 13.1 16 12 16ZM12 20.5L14.5 18H18V14.5L20.5 12L18 9.50001V6.00001H14.5L12 3.50001L9.50001 6.00001H6.00001V9.50001L3.50001 12L6.00001 14.5V18H9.50001L12 20.5Z" fill="#FAF0E6"/>
</svg>
